<?xml version="1.0" standalone="no"?>
<!DOCTYPE svg PUBLIC "-//W3C//DTD SVG 20010904//EN"
 "http://www.w3.org/TR/2001/REC-SVG-20010904/DTD/svg10.dtd">
<svg version="1.0" xmlns="http://www.w3.org/2000/svg"
 width="1434.000000pt" height="392.000000pt" viewBox="0 0 1434.000000 392.000000"
 preserveAspectRatio="xMidYMid meet">

<g transform="translate(0.000000,392.000000) scale(0.100000,-0.100000)"
fill="#fff" stroke="none">
<path d="M524 3471 c-33 -8 -89 -44 -112 -71 -7 -8 -22 -33 -32 -55 -19 -39
-20 -75 -20 -1078 0 -618 4 -1044 9 -1055 5 -9 23 -46 39 -82 37 -83 114 -168
190 -208 115 -61 121 -62 843 -62 l655 0 45 29 c43 27 83 68 92 94 2 7 16 1
37 -16 18 -16 55 -39 83 -53 101 -52 131 -54 827 -54 355 0 674 5 709 10 90
13 184 62 254 132 l59 58 55 -56 c62 -63 164 -117 252 -134 33 -6 305 -10 700
-10 l646 0 44 23 44 24 43 -24 c42 -24 43 -24 327 -21 l284 3 42 29 c24 17 57
50 74 75 28 40 32 56 36 125 2 48 9 85 16 93 10 9 44 13 114 13 90 0 102 -2
121 -22 11 -12 20 -26 20 -31 0 -5 6 -23 14 -40 38 -83 66 -149 101 -232 50
-121 65 -150 97 -190 57 -68 3 -65 1192 -65 840 1 1084 4 1131 14 90 19 171
64 235 129 40 40 62 56 74 51 9 -3 16 -9 16 -13 0 -19 128 -131 151 -131 8 0
20 -5 26 -11 6 -6 44 -17 84 -25 96 -18 1304 -20 1426 -3 69 10 175 53 193 79
7 10 47 30 60 30 6 0 13 -8 17 -17 10 -28 75 -82 113 -94 22 -7 132 -9 305 -7
307 3 300 2 382 89 26 29 55 59 63 68 9 9 51 55 94 104 43 48 86 87 95 87 20
0 36 -14 121 -111 126 -143 182 -198 226 -218 41 -20 62 -21 317 -21 l274 0
37 25 c20 14 41 25 46 25 6 0 10 7 10 15 0 8 4 15 8 15 19 0 45 79 49 150 l4
75 -19 -40 c-24 -51 -90 -111 -139 -125 -25 -8 -124 -10 -298 -8 l-260 3 -47
28 c-30 17 -97 83 -179 175 -72 81 -137 148 -143 150 -12 3 -88 -73 -216 -216
-41 -46 -95 -96 -120 -110 l-45 -27 -264 -3 c-225 -3 -270 -1 -307 13 -39 15
-85 53 -117 99 -13 17 -16 16 -72 -23 -33 -23 -91 -52 -130 -64 -69 -22 -76
-22 -760 -22 -641 0 -694 1 -750 18 -89 28 -149 64 -206 124 -27 29 -54 53
-59 53 -5 0 -32 -24 -59 -53 -57 -60 -117 -96 -206 -124 -57 -17 -121 -18
-1160 -18 -1093 0 -1100 0 -1140 21 -56 29 -90 84 -179 295 -43 101 -87 201
-97 221 l-19 38 -126 0 -125 0 3 53 3 52 115 3 c63 1 120 -1 126 -5 6 -5 53
-109 105 -232 80 -191 101 -232 139 -272 29 -30 59 -51 85 -58 55 -15 2147
-15 2230 0 89 16 181 65 249 133 l59 59 36 -43 c45 -54 135 -114 209 -137 53
-17 112 -18 772 -18 712 0 715 0 772 22 32 12 83 39 114 59 l55 37 30 -37 c17
-20 50 -47 73 -61 43 -25 43 -25 307 -25 159 0 280 4 303 11 42 12 105 70 274
254 l92 100 43 -46 c219 -238 265 -283 302 -300 36 -17 70 -19 309 -19 253 0
272 1 313 21 44 21 103 83 103 107 0 7 5 10 10 7 7 -4 10 91 10 279 0 316 -4
343 -65 400 -56 53 -99 66 -218 66 -82 0 -108 3 -105 13 3 8 39 14 108 19 128
8 144 12 187 45 57 44 86 104 90 192 l4 76 -19 -40 c-21 -44 -89 -110 -128
-125 -14 -6 -74 -10 -134 -10 l-109 0 -28 -35 c-32 -40 -43 -43 -68 -16 -16
19 -16 21 3 48 11 15 38 44 59 64 l38 37 112 5 c98 4 118 8 156 31 49 28 97
79 97 102 0 8 5 14 10 14 6 0 10 102 10 286 l0 286 -25 47 c-16 29 -45 59 -77
81 l-51 35 -251 3 c-338 5 -336 5 -446 -108 -47 -49 -119 -125 -160 -170 -51
-55 -80 -79 -90 -75 -8 3 -30 25 -49 48 -34 43 -120 138 -197 218 -80 84 -80
84 -399 84 -276 0 -281 0 -317 -23 -21 -13 -54 -42 -74 -65 -31 -36 -37 -40
-47 -26 -7 8 -19 18 -27 22 -8 4 -28 16 -45 27 -16 10 -59 29 -95 41 -64 22
-75 23 -666 27 -734 5 -816 -1 -944 -61 -81 -38 -164 -131 -206 -229 l-21 -50
-7 32 c-3 18 -6 132 -6 254 0 186 -3 231 -19 286 -49 171 -149 271 -336 332
-32 10 -196 13 -785 13 l-745 0 -45 -32 c-44 -32 -81 -73 -87 -96 -19 -78 -23
-199 -23 -769 0 -469 -4 -649 -12 -654 -7 -4 -8 -3 -4 4 4 7 2 12 -3 12 -6 0
-11 5 -11 10 0 20 -84 146 -128 192 l-46 47 19 58 c11 32 23 63 27 69 5 6 11
49 13 95 l5 84 -16 -40 c-8 -22 -26 -75 -39 -117 -13 -42 -29 -87 -35 -99 -11
-19 -14 -20 -21 -7 -6 11 3 48 27 115 19 54 38 110 41 126 3 15 9 30 14 33 5
3 9 15 9 27 0 12 7 40 15 62 39 108 -1 214 -105 278 -34 21 -45 22 -315 22
-269 0 -282 -1 -320 -22 -22 -12 -53 -33 -69 -47 -16 -15 -30 -25 -31 -24 -2
2 -5 113 -8 248 -6 284 -11 304 -88 374 -62 56 -86 59 -409 54 l-235 -3 -42
-27 c-54 -35 -87 -81 -102 -140 -6 -26 -11 -125 -11 -220 0 -95 -4 -177 -8
-183 -4 -6 -239 -10 -667 -10 -613 0 -664 -1 -720 -18 -67 -21 -138 -58 -173
-90 l-23 -22 -19 25 c-11 14 -20 27 -20 30 0 3 -23 21 -51 40 l-52 35 -281 0
-281 0 -46 -27 c-55 -32 -93 -80 -108 -134 -7 -26 -11 -211 -11 -517 l-1 -477
-207 2 -207 3 -5 495 -5 495 -28 47 c-63 108 -113 121 -453 116 l-241 -3 -51
-35 c-32 -22 -61 -52 -77 -81 l-25 -47 0 -496 0 -496 -425 0 c-234 0 -426 1
-427 3 -2 1 -5 358 -8 792 -6 868 -1 814 -66 879 -61 60 -65 61 -354 63 -146
1 -279 -2 -296 -6z m566 -41 c42 -25 81 -63 96 -95 12 -25 14 -161 16 -825 l3
-795 442 -5 c335 -4 445 -8 455 -17 6 -7 16 -13 20 -13 4 0 8 231 8 514 0 446
2 519 16 552 17 42 76 102 109 110 11 3 146 4 300 2 l280 -3 34 -30 c73 -66
71 -45 71 -610 l0 -505 250 0 249 0 3 527 c2 410 6 527 16 531 6 2 12 8 12 13
0 12 37 49 49 49 5 0 11 6 14 13 3 9 73 12 305 12 l301 0 46 -45 c25 -24 45
-49 45 -56 0 -6 7 -25 15 -40 8 -16 15 -22 15 -14 0 8 14 26 31 40 17 14 39
32 49 41 17 14 36 24 114 60 24 11 160 14 720 14 380 0 698 -2 706 -5 13 -4
15 16 17 135 6 352 5 337 42 383 60 76 62 77 356 77 235 0 264 -2 300 -19 49
-23 91 -70 99 -109 3 -16 6 -184 6 -373 0 -204 4 -345 9 -349 11 -6 30 32 57
118 17 54 62 117 83 117 5 0 11 6 14 13 3 9 73 12 304 12 l301 0 48 -49 49
-48 0 -83 c0 -46 -5 -88 -11 -96 -7 -8 -15 -30 -19 -49 -4 -19 -11 -39 -15
-45 -4 -5 -11 -26 -15 -45 -4 -19 -11 -41 -15 -50 -14 -27 -39 -104 -45 -142
-6 -32 -4 -38 22 -54 44 -28 129 -117 166 -176 30 -46 50 -87 87 -173 4 -11
15 -36 24 -57 9 -20 16 -41 16 -47 0 -6 4 -11 10 -11 6 0 11 285 12 793 l3
792 24 38 c13 21 42 51 65 65 l41 27 735 0 c681 0 739 -1 785 -18 84 -30 128
-54 165 -89 75 -73 83 -85 131 -208 10 -27 14 -132 17 -458 3 -378 5 -425 20
-442 9 -11 20 -20 24 -20 5 0 8 37 9 83 0 93 12 202 28 264 10 39 24 66 75
148 19 31 97 95 116 95 5 0 10 4 10 9 0 5 31 19 68 30 68 21 80 22 788 19 500
-2 725 -6 739 -14 11 -6 38 -20 59 -30 42 -20 69 -40 117 -87 l29 -28 10 26
c6 15 10 30 10 35 0 20 83 90 113 95 18 3 155 5 304 3 l273 -3 87 -91 c49 -49
102 -106 119 -126 17 -20 56 -64 86 -98 l56 -61 43 45 c56 56 162 174 191 212
41 51 98 105 124 114 32 13 555 13 586 1 39 -16 74 -54 97 -103 20 -44 21 -63
21 -290 0 -214 -3 -248 -19 -283 -41 -91 -113 -125 -260 -125 l-89 0 -50 -53
c-28 -28 -61 -65 -74 -82 -12 -16 -25 -31 -29 -33 -3 -1 30 -41 75 -87 l81
-85 97 0 c139 0 208 -31 246 -110 15 -30 17 -73 17 -309 0 -211 -3 -275 -12
-279 -7 -2 -13 -9 -13 -16 0 -14 -53 -64 -87 -83 -17 -10 -95 -13 -291 -13
-310 0 -300 -3 -387 93 -158 172 -206 225 -233 257 l-30 34 -43 -45 c-24 -25
-80 -85 -124 -135 -111 -124 -173 -184 -190 -184 -8 0 -15 -4 -15 -10 0 -6
-98 -10 -273 -10 -235 0 -279 2 -308 17 -33 16 -89 69 -89 84 0 4 -5 20 -10
35 l-10 26 -23 -23 c-56 -60 -153 -119 -195 -119 -12 0 -24 -5 -27 -10 -9 -14
-1431 -14 -1440 0 -3 5 -15 10 -25 10 -25 0 -120 41 -120 52 0 4 -5 8 -11 8
-16 0 -91 78 -114 117 -22 37 -33 41 -42 16 -28 -73 -185 -193 -252 -193 -11
0 -23 -5 -26 -10 -4 -7 -384 -10 -1111 -10 -1087 0 -1106 1 -1145 20 -21 11
-50 37 -63 58 -29 46 -66 126 -66 144 0 7 -7 22 -15 32 -8 11 -15 28 -15 38 0
10 -4 18 -9 18 -5 0 -13 15 -16 32 -4 18 -10 38 -14 43 -4 6 -23 46 -41 90
-18 44 -38 86 -43 93 -7 9 -48 12 -161 10 l-151 -3 -5 -235 c-6 -265 -5 -264
-88 -314 l-43 -26 -270 0 c-284 0 -288 1 -337 47 -17 16 -27 16 -44 0 -52 -49
-19 -47 -729 -47 l-662 0 -75 26 c-41 14 -98 43 -126 64 -49 37 -96 90 -96
108 0 15 -22 31 -36 25 -8 -3 -14 -11 -14 -19 0 -7 -26 -40 -58 -73 -58 -59
-148 -111 -191 -111 -11 0 -23 -5 -26 -10 -8 -13 -1421 -14 -1429 -1 -3 5 -26
12 -51 15 -25 4 -45 11 -45 16 0 4 -11 11 -25 14 -14 4 -49 29 -77 56 -57 55
-68 60 -68 30 0 -37 -67 -120 -96 -120 -8 0 -14 -4 -14 -10 0 -14 -1356 -14
-1365 0 -3 5 -15 10 -25 10 -25 0 -120 41 -120 52 0 4 -5 8 -11 8 -37 0 -159
171 -159 222 0 13 -6 30 -12 36 -10 10 -13 231 -13 1035 0 956 1 1024 18 1059
24 51 91 106 136 111 20 3 144 4 276 3 193 -1 245 -4 265 -16z"/>
<path d="M560 3280 c-20 -20 -20 -33 -20 -967 0 -978 2 -1030 41 -1118 21 -48
61 -91 93 -101 11 -4 24 -11 27 -16 3 -4 46 -15 95 -23 71 -12 206 -15 657
-15 506 0 570 2 592 16 l25 16 0 231 c0 207 -2 231 -17 243 -14 11 -116 13
-505 14 l-488 0 0 850 0 849 -22 21 c-21 19 -34 20 -240 20 -205 0 -219 -1
-238 -20z"/>
<path d="M6068 3286 c-17 -12 -18 -78 -18 -1120 0 -976 2 -1106 15 -1106 8 0
15 -4 15 -10 0 -16 431 -13 453 4 15 12 17 38 17 289 l0 277 23 5 c12 3 139 4
281 3 l260 -3 27 -55 c16 -30 28 -63 29 -72 0 -10 4 -18 9 -18 5 0 13 -14 16
-32 4 -18 11 -39 16 -48 5 -8 18 -37 29 -65 12 -27 28 -66 36 -85 9 -19 19
-44 24 -55 39 -93 63 -136 80 -145 11 -6 104 -10 228 -10 275 0 274 -1 216
140 -8 19 -19 43 -24 52 -6 10 -10 23 -10 29 0 6 -6 25 -14 42 -7 18 -28 68
-46 112 -18 44 -39 96 -47 115 -25 60 -30 74 -48 120 -9 25 -23 59 -30 75 -6
17 -17 41 -22 55 -26 64 -87 180 -94 180 -5 0 -9 5 -9 10 0 17 -90 100 -116
106 -13 3 -24 9 -24 13 0 4 -22 13 -49 21 l-49 13 10 36 c5 20 13 45 18 56 19
43 130 382 130 398 0 9 5 17 10 17 6 0 10 18 10 40 l0 40 -248 0 -247 0 -17
-47 c-9 -27 -19 -63 -23 -80 -4 -18 -11 -35 -16 -38 -5 -4 -9 -17 -9 -30 0
-13 -4 -26 -9 -29 -5 -3 -12 -23 -16 -43 -4 -21 -10 -42 -14 -48 -4 -5 -17
-44 -30 -85 -12 -41 -27 -83 -32 -92 -5 -10 -9 -26 -9 -35 -1 -42 -23 -53
-108 -53 -61 0 -81 3 -85 15 -4 8 -6 265 -7 571 0 517 -2 558 -18 570 -25 19
-439 19 -464 0z"/>
<path d="M7948 3286 c-17 -12 -18 -78 -18 -1117 l0 -1104 29 -13 c24 -11 171
-12 743 -9 719 5 821 10 887 43 64 32 114 94 140 175 17 55 15 652 -3 722 -22
84 -50 130 -98 161 l-28 18 0 436 c0 438 -1 454 -38 544 -17 43 -64 94 -95
104 -12 4 -25 11 -28 15 -3 5 -43 16 -90 24 -118 21 -1374 22 -1401 1z m1152
-681 l0 -175 -330 0 -330 0 0 175 0 175 330 0 330 0 0 -175z m140 -870 l0
-175 -400 0 -400 0 0 175 0 175 400 0 400 0 0 -175z"/>
<path d="M8590 2605 l0 -25 175 0 175 0 0 25 0 25 -175 0 -175 0 0 -25z"/>
<path d="M8590 1735 l0 -25 245 0 245 0 0 25 0 25 -245 0 -245 0 0 -25z"/>
<path d="M2292 1973 c3 -735 3 -738 25 -778 26 -49 67 -92 97 -101 11 -4 24
-11 27 -16 3 -5 39 -15 80 -21 105 -17 1227 -17 1324 0 73 13 135 37 135 54 0
5 7 9 15 9 8 0 15 4 15 9 0 4 10 19 23 33 13 14 31 45 40 69 15 41 17 111 17
762 l0 717 -234 0 c-129 0 -241 -3 -250 -6 -14 -6 -16 -66 -16 -575 l0 -569
-400 0 -400 0 0 563 c0 425 -3 566 -12 575 -9 9 -78 12 -250 12 l-239 0 3
-737z"/>
<path d="M4490 2690 c-53 -21 -120 -76 -138 -114 -6 -14 -18 -38 -24 -53 -10
-20 -13 -170 -13 -643 l0 -617 29 -56 c50 -100 94 -130 221 -153 63 -11 201
-14 658 -14 378 0 577 3 577 10 0 6 7 10 15 10 13 0 15 33 15 240 0 226 -1
240 -19 250 -13 6 -190 10 -505 10 l-486 0 0 325 0 325 430 0 430 0 6 28 c4
15 10 32 14 37 4 6 11 26 15 45 4 19 10 40 14 45 4 6 15 37 25 70 10 33 25 74
32 92 8 17 14 40 14 50 0 10 5 24 10 29 6 6 12 31 13 55 l2 44 -645 1 c-593 1
-649 0 -690 -16z"/>
<path d="M10155 2696 c-86 -33 -133 -74 -168 -145 l-22 -46 0 -620 c0 -591 1
-623 19 -665 23 -52 78 -115 120 -136 68 -33 163 -38 756 -39 579 0 729 7 738
35 2 6 11 10 20 10 34 0 100 76 127 145 19 48 20 76 20 651 0 408 -3 609 -11
625 -38 85 -59 117 -93 141 -83 59 -64 58 -801 57 -485 -1 -683 -5 -705 -13z
m1105 -811 l0 -325 -395 0 -395 0 0 325 0 325 395 0 395 0 0 -325z"/>
<path d="M10620 1880 l0 -170 243 2 242 3 3 168 2 167 -245 0 -245 0 0 -170z
m450 80 l0 -50 -204 0 -204 0 -4 50 c-1 28 0 51 4 53 4 1 98 1 208 -1 l200 -3
0 -49z m-2 -207 c3 -10 -42 -13 -202 -13 -178 0 -206 2 -206 15 0 13 27 15
202 13 150 -2 202 -6 206 -15z"/>
<path d="M11990 2460 l0 -250 138 0 137 0 25 -32 c14 -17 43 -50 65 -72 22
-23 53 -57 69 -76 15 -19 50 -58 77 -86 27 -29 49 -57 49 -63 0 -5 -13 -24
-30 -41 -16 -17 -30 -33 -30 -36 0 -3 -10 -15 -22 -27 -21 -20 -53 -55 -161
-175 l-38 -42 -127 0 c-86 0 -132 -4 -140 -12 -9 -9 -12 -77 -12 -246 0 -212
2 -236 18 -248 13 -10 69 -13 234 -14 l217 0 48 49 c44 45 109 117 209 231 21
24 58 65 80 90 23 25 53 57 66 72 l24 27 40 -39 c22 -21 58 -59 80 -85 21 -26
57 -67 79 -90 22 -22 51 -54 63 -71 13 -16 57 -64 98 -106 l74 -78 218 0 c206
0 219 1 240 20 21 20 22 27 22 240 0 278 12 260 -170 260 -71 0 -130 4 -130 8
0 4 -26 35 -57 69 -32 34 -86 92 -120 130 -34 37 -70 78 -82 89 l-20 22 27 33
c15 18 45 52 67 74 37 38 134 147 180 203 18 21 27 22 149 22 111 0 131 2 142
18 17 21 20 432 4 463 -10 18 -24 19 -248 19 l-238 0 -61 -67 c-33 -38 -78
-88 -99 -112 -22 -24 -51 -57 -66 -73 -16 -16 -28 -31 -28 -33 0 -3 -26 -31
-57 -64 -32 -32 -68 -71 -81 -85 -18 -22 -25 -24 -35 -14 -7 8 -41 47 -77 88
-36 41 -76 86 -90 101 -28 30 -139 153 -195 217 l-37 42 -244 0 -244 0 0 -250z"/>
<path d="M5866 2297 c-10 -34 -25 -76 -32 -94 -8 -17 -14 -35 -14 -41 0 -5
-16 -26 -37 -45 -65 -63 -90 -67 -472 -67 l-341 0 0 -170 0 -170 425 0 c345 0
432 -3 460 -14 29 -12 34 -12 39 0 8 21 6 638 -2 651 -4 7 -16 -16 -26 -50z
m-33 -285 c-20 -33 -44 -54 -82 -74 l-53 -28 -345 0 -344 0 3 50 3 50 340 2
c334 3 341 3 388 27 26 12 62 40 80 62 l32 38 3 -41 c3 -31 -4 -52 -25 -86z
m25 -203 l-3 -64 -423 -3 c-337 -2 -423 0 -420 10 4 10 83 14 339 19 338 6
389 10 410 35 6 8 17 14 23 14 6 0 22 16 35 35 32 47 43 34 39 -46z"/>
<path d="M11920 1883 c0 -104 3 -192 6 -196 4 -3 19 0 35 8 19 10 61 15 134
15 88 0 108 3 123 18 36 37 132 150 132 156 0 3 -19 25 -43 49 -24 25 -56 61
-71 80 l-29 36 -106 4 c-58 3 -123 8 -143 12 l-38 7 0 -189z m284 108 c10 -9
36 -38 58 -64 l41 -48 -24 -25 -23 -25 -37 41 -37 40 -111 0 -111 0 0 53 0 53
113 -4 c85 -3 117 -8 131 -21z m-26 -227 c7 -2 10 -8 7 -14 -9 -14 -212 -13
-221 1 -3 6 -1 14 5 18 11 7 185 3 209 -5z"/>
<path d="M6828 1183 c17 -2 47 -2 65 0 17 2 3 4 -33 4 -36 0 -50 -2 -32 -4z"/>
<path d="M365 1087 c19 -211 106 -346 270 -422 94 -43 138 -45 814 -45 722 0
666 -6 749 80 l48 49 24 -22 c43 -38 132 -79 205 -93 103 -20 1341 -20 1435 0
90 19 166 60 227 123 46 47 93 70 93 44 0 -19 93 -99 147 -126 109 -53 124
-54 826 -55 628 0 649 1 689 20 43 21 78 26 78 12 0 -25 78 -32 341 -32 260 0
276 1 309 21 53 32 99 88 105 128 3 20 10 56 16 80 12 53 -2 76 -20 33 -17
-42 -69 -92 -116 -113 -35 -17 -70 -19 -306 -19 -264 0 -266 0 -313 25 l-46
24 -47 -25 -48 -25 -665 3 c-606 4 -670 6 -720 22 -83 27 -154 71 -203 126
-25 28 -48 50 -52 50 -4 0 -31 -24 -60 -54 -75 -76 -174 -123 -285 -136 -110
-13 -1229 -13 -1339 0 -89 10 -181 46 -247 97 -35 27 -37 27 -50 8 -33 -46
-79 -85 -118 -100 -38 -15 -113 -16 -702 -12 -710 4 -686 2 -795 57 -99 50
-176 140 -214 248 -31 86 -36 91 -30 29z"/>
</g>
</svg>
